# xmcd
#
# Track frame offsets:
#	150
#	18115
#	35869
#	44767
#	59416
#	76564
#	91586
#	106814
#	119462
#	140592
#	156258
#	174553
#	187617
#
# Disc length: 2671 seconds
#
# Revision: 1
# Processed by: cddbd v1.5PL3 Copyright (c) Steve Scherf et al.
# Submitted via: audiograbber 1.83.01
#
DISCID=9e0a6d0d
DTITLE=Skystone - Traditional Bluegrass
DYEAR=2004
DGENRE=Bluegrass
TTITLE0=The Old Home Town
TTITLE1=I Thought I Heard You Calling My Name
TTITLE2=Soldier's Joy
TTITLE3=Get In Line Brother
TTITLE4=Silver Wings
TTITLE5=Nine Pound Hammer
TTITLE6=Song For Life
TTITLE7=Bending The Strings
TTITLE8=Long Black Veil
TTITLE9=The Big Spike Hammer
TTITLE10=Over In The Gloryland
TTITLE11=Ridin' With Ole Mosby
TTITLE12=Lonesome Road Blues
EXTD=
EXTT0=
EXTT1=
EXTT2=
EXTT3=
EXTT4=
EXTT5=
EXTT6=
EXTT7=
EXTT8=
EXTT9=
EXTT10=
EXTT11=
EXTT12=
PLAYORDER=
